<?xml version="1.0" standalone="no"?>
<!DOCTYPE svg PUBLIC "-//W3C//DTD SVG 20010904//EN"
 "http://www.w3.org/TR/2001/REC-SVG-20010904/DTD/svg10.dtd">
<svg version="1.0" xmlns="http://www.w3.org/2000/svg"
 width="33.000000pt" height="58.000000pt" viewBox="0 0 33.000000 58.000000"
 preserveAspectRatio="xMidYMid meet">

<g transform="translate(0.000000,58.000000) scale(0.100000,-0.100000)"
fill="#000000" stroke="none">
<path d="M12 568 c-7 -7 -12 -19 -12 -27 0 -8 49 -65 110 -126 60 -62 110
-118 110 -126 0 -8 -49 -64 -110 -124 -60 -60 -110 -117 -110 -125 0 -20 20
-40 40 -40 20 0 290 270 290 290 0 20 -271 290 -291 290 -8 0 -20 -5 -27 -12z"/>
</g>
</svg>
