<?xml version="1.0" standalone="no"?>
<!DOCTYPE svg PUBLIC "-//W3C//DTD SVG 20010904//EN"
 "http://www.w3.org/TR/2001/REC-SVG-20010904/DTD/svg10.dtd">
<svg version="1.0" xmlns="http://www.w3.org/2000/svg"
 width="33.000000pt" height="58.000000pt" viewBox="0 0 33.000000 58.000000"
 preserveAspectRatio="xMidYMid meet">

<g transform="translate(0.000000,58.000000) scale(0.100000,-0.100000)"
fill="#000000" stroke="none">
<path d="M137 442 c-75 -75 -137 -144 -137 -152 0 -20 271 -290 291 -290 19 0
39 20 39 39 0 8 -49 65 -110 126 -61 62 -110 118 -110 125 0 7 50 63 110 125
61 61 110 118 110 126 0 19 -20 39 -40 39 -8 0 -77 -62 -153 -138z"/>
</g>
</svg>
